<svg id="Componente_4" data-name="Componente 4" xmlns="http://www.w3.org/2000/svg" width="76.955" height="76.953" viewBox="0 0 76.955 76.953">
  <path id="Tracciato_4180" data-name="Tracciato 4180" d="M76.954,38.477A38.478,38.478,0,1,1,38.477,0,38.477,38.477,0,0,1,76.954,38.477" transform="translate(0.001)" fill="#273770"/>
  <path id="Tracciato_4198" data-name="Tracciato 4198" d="M38.477,0A38.451,38.451,0,0,0,5.16,19.239a38.469,38.469,0,0,0,66.634,0A38.451,38.451,0,0,0,38.477,0" transform="translate(0)" fill="#bbc3c9"/>
  <path id="Tracciato_4199" data-name="Tracciato 4199" d="M52.376,49.624c0-4.88,1.825-7.807,3.591-10.638,1.868-3,3.8-6.094,3.8-11.869,0-10.42-5.482-14.131-10.613-14.131-3.116,0-5.859,1.4-7.861,2.426a11.5,11.5,0,0,1-2.33,1.015c3.186,2.43,5.714,1.628,5.832,1.588a.852.852,0,0,1,1.074.642.991.991,0,0,1-.561,1.207,5.549,5.549,0,0,1-1.731.24A9.831,9.831,0,0,1,36.7,16.911a14.39,14.39,0,0,0-5.618-3.439,11.961,11.961,0,0,0-3.284-.486c-5.13,0-10.614,3.711-10.614,14.131,0,5.775,1.933,8.873,3.8,11.869,1.764,2.831,3.591,5.758,3.591,10.638,0,8.831,2.769,17.1,6.3,18.833a.423.423,0,0,0,.43-.042.5.5,0,0,0,.2-.416V57c0-4.313,3.124-7.822,6.964-7.822S45.443,52.69,45.443,57V68a.5.5,0,0,0,.2.416.4.4,0,0,0,.428.042c3.534-1.73,6.3-10,6.3-18.833" transform="translate(0)" fill="#fff"/>
</svg>
